<svg width="220" height="100" viewBox="0 0 220 100" fill="none" xmlns="http://www.w3.org/2000/svg">
<g clip-path="url(#clip0_115_127)">
<path d="M113.821 54.7369H103.176L117.643 17.8948H128.561L143.027 54.7369H132.382L129.926 48.1579H116.278L113.821 54.7369ZM118.734 41.3158H127.469L123.102 28.9474L118.734 41.3158ZM175.805 54.2106C167.689 54.9121 160.956 55.2632 155.607 55.2632C152.04 55.2632 149.42 54.4564 147.746 52.8421C146.071 51.2281 145.234 48.7018 145.234 45.2632V28.4211C145.234 24.7369 146.09 22.0702 147.8 20.4211C149.547 18.7369 152.331 17.8948 156.152 17.8948H175.805V25.2632H158.336C156.152 25.2632 155.061 26.3158 155.061 28.4211V45.2632C155.061 46.0702 155.297 46.7194 155.77 47.2106C156.28 47.6667 156.917 47.8948 157.681 47.8948C158.445 47.8948 159.282 47.8948 160.192 47.8948C161.102 47.8597 162.048 47.8246 163.031 47.7895C164.014 47.7544 164.996 47.7194 165.979 47.6842C166.998 47.6491 168.29 47.579 169.855 47.4737C171.456 47.3685 173.44 47.2457 175.805 47.1053V54.2106ZM200.377 54.7369H190.551V25.2632H179.087V17.8948H211.841V25.2632H200.377V54.7369Z" fill="black"/>
<path d="M104.497 77.3684V70.1263H109.541V71.5368H106.397V73.2526H109.137V74.6632H106.397V77.3684H104.497ZM111.644 77.4526C111.294 77.4526 111 77.4 110.759 77.2947C110.519 77.1895 110.337 77.0174 110.213 76.7789C110.097 76.5405 110.039 76.2279 110.039 75.8421C110.039 75.4353 110.086 75.1121 110.181 74.8737C110.283 74.6279 110.461 74.4526 110.716 74.3474C110.971 74.2421 111.331 74.1895 111.797 74.1895C111.862 74.1895 111.953 74.1932 112.07 74.2C112.193 74.2 112.332 74.2037 112.484 74.2105C112.637 74.2105 112.79 74.2142 112.943 74.2211C113.096 74.2211 113.234 74.2247 113.358 74.2316V74.0316C113.358 73.8279 113.34 73.67 113.303 73.5579C113.274 73.4458 113.213 73.3647 113.118 73.3158C113.03 73.2595 112.896 73.2279 112.714 73.221C112.532 73.2068 112.292 73.2 111.993 73.2C111.826 73.2 111.64 73.2037 111.436 73.2105C111.24 73.2174 111.043 73.2279 110.847 73.2421C110.658 73.2489 110.497 73.2595 110.366 73.2737V72.0842C110.665 72.0353 111 71.9963 111.371 71.9684C111.75 71.9332 112.146 71.9158 112.561 71.9158C113.027 71.9158 113.412 71.9437 113.718 72C114.031 72.0563 114.283 72.1437 114.471 72.2632C114.661 72.3753 114.799 72.5195 114.886 72.6947C114.981 72.87 115.043 73.0774 115.072 73.3158C115.101 73.5542 115.116 73.8247 115.116 74.1263V77.3684H113.434L113.391 76.7368H113.303C113.165 76.9474 113.005 77.1053 112.823 77.2105C112.641 77.3158 112.448 77.3826 112.244 77.4105C112.041 77.4384 111.84 77.4526 111.644 77.4526ZM112.473 76.2526C112.605 76.2526 112.718 76.2458 112.812 76.2316C112.914 76.2105 112.998 76.1789 113.063 76.1368C113.136 76.0879 113.194 76.0279 113.238 75.9579C113.274 75.8805 113.303 75.7858 113.325 75.6737C113.347 75.5616 113.358 75.4279 113.358 75.2737V75.0737H112.342C112.161 75.0737 112.023 75.0879 111.928 75.1158C111.833 75.1368 111.768 75.1931 111.731 75.2842C111.702 75.3684 111.687 75.5016 111.687 75.6842C111.687 75.8384 111.706 75.9579 111.742 76.0421C111.779 76.1263 111.851 76.1826 111.96 76.2105C112.077 76.2384 112.248 76.2526 112.473 76.2526ZM118.494 77.4526C118.028 77.4526 117.646 77.4142 117.348 77.3368C117.049 77.2526 116.813 77.1368 116.638 76.9895C116.464 76.8353 116.336 76.6458 116.256 76.421C116.176 76.1963 116.125 75.9405 116.103 75.6526C116.081 75.3579 116.07 75.0353 116.07 74.6842C116.07 74.3405 116.081 74.0247 116.103 73.7368C116.125 73.4489 116.18 73.1932 116.267 72.9684C116.354 72.7368 116.482 72.5437 116.649 72.3895C116.824 72.2353 117.056 72.1195 117.348 72.0421C117.646 71.9579 118.025 71.9158 118.483 71.9158C118.774 71.9158 119.065 71.93 119.357 71.9579C119.655 71.9858 119.921 72.0279 120.154 72.0842V73.2737C120.008 73.2526 119.819 73.2353 119.586 73.221C119.36 73.2068 119.149 73.2 118.953 73.2C118.698 73.2 118.498 73.221 118.352 73.2632C118.207 73.2984 118.097 73.3684 118.025 73.4737C117.952 73.5721 117.901 73.7195 117.872 73.9158C117.85 74.1121 117.839 74.3684 117.839 74.6842C117.839 75 117.85 75.2595 117.872 75.4632C117.901 75.6595 117.952 75.8105 118.025 75.9158C118.097 76.0142 118.21 76.0805 118.363 76.1158C118.516 76.151 118.716 76.1684 118.964 76.1684C119.138 76.1684 119.335 76.1616 119.553 76.1474C119.779 76.1331 119.993 76.1158 120.197 76.0947V77.2842C119.957 77.3332 119.684 77.3721 119.379 77.4C119.073 77.4353 118.778 77.4526 118.494 77.4526ZM121.069 70.9053V69.5474H122.871V70.9053H121.069ZM121.091 77.3684V72H122.86V77.3684H121.091ZM123.997 77.3684V69.5474H125.766V77.3684H123.997ZM126.881 70.9053V69.5474H128.683V70.9053H126.881ZM126.903 77.3684V72H128.672V77.3684H126.903ZM130.365 77.3684V73.2842H129.35V72H130.365V70.4421H132.134V72H133.346V73.2842H132.134V77.3684H130.365ZM136.384 79.5368C136.158 79.5368 135.925 79.53 135.685 79.5158C135.445 79.5089 135.215 79.4947 134.997 79.4737C134.786 79.4526 134.6 79.4316 134.44 79.4105V78.2421C134.666 78.2421 134.866 78.2421 135.041 78.2421C135.222 78.2489 135.386 78.2526 135.532 78.2526C135.685 78.2526 135.827 78.2526 135.958 78.2526C136.3 78.2526 136.569 78.2384 136.766 78.2105C136.962 78.1826 137.104 78.13 137.192 78.0526C137.279 77.9753 137.333 77.8563 137.355 77.6947C137.377 77.5405 137.388 77.3368 137.388 77.0842V76.6526H137.301C137.199 76.821 137.071 76.9579 136.919 77.0632C136.766 77.1616 136.587 77.2353 136.384 77.2842C136.187 77.3263 135.969 77.3474 135.729 77.3474C135.357 77.3474 135.059 77.3053 134.833 77.221C134.608 77.13 134.436 76.9963 134.32 76.8211C134.204 76.6384 134.127 76.421 134.091 76.1684C134.054 75.9089 134.036 75.6068 134.036 75.2632V72H135.783V74.7474C135.783 75.0353 135.79 75.2632 135.805 75.4316C135.827 75.5932 135.863 75.7121 135.914 75.7895C135.965 75.8668 136.041 75.9158 136.143 75.9368C136.245 75.9579 136.384 75.9684 136.558 75.9684C136.748 75.9684 136.897 75.9511 137.006 75.9158C137.122 75.8737 137.206 75.8068 137.257 75.7158C137.308 75.6174 137.341 75.4879 137.355 75.3263C137.377 75.1579 137.388 74.951 137.388 74.7053V72H139.146V76.7684C139.146 77.2384 139.12 77.6458 139.069 77.9895C139.019 78.3405 138.906 78.6279 138.731 78.8526C138.556 79.0842 138.28 79.2563 137.901 79.3684C137.53 79.4805 137.024 79.5368 136.384 79.5368ZM145.661 77.4526C145.37 77.4526 145.054 77.4458 144.711 77.4316C144.377 77.4174 144.045 77.3963 143.718 77.3684C143.397 77.3405 143.11 77.3121 142.855 77.2842V75.9263C143.124 75.9474 143.394 75.9684 143.663 75.9895C143.94 76.0105 144.202 76.0247 144.449 76.0316C144.697 76.0384 144.904 76.0421 145.072 76.0421C145.421 76.0421 145.687 76.0316 145.869 76.0105C146.05 75.9826 146.185 75.9437 146.273 75.8947C146.331 75.8458 146.371 75.7931 146.393 75.7368C146.422 75.6805 146.44 75.6142 146.447 75.5368C146.454 75.4595 146.458 75.3721 146.458 75.2737C146.458 75.1263 146.447 75.0105 146.426 74.9263C146.411 74.8353 146.375 74.7647 146.316 74.7158C146.266 74.6668 146.185 74.6316 146.076 74.6105C145.967 74.5826 145.825 74.5579 145.65 74.5368L144.111 74.3474C143.812 74.3121 143.569 74.2421 143.379 74.1368C143.19 74.0247 143.041 73.8774 142.932 73.6947C142.823 73.5121 142.746 73.2984 142.702 73.0526C142.659 72.8 142.637 72.5195 142.637 72.2105C142.637 71.7332 142.71 71.3542 142.855 71.0737C143.001 70.7858 143.201 70.5684 143.456 70.421C143.718 70.2668 144.02 70.1647 144.362 70.1158C144.711 70.0668 145.09 70.0421 145.497 70.0421C145.788 70.0421 146.091 70.0526 146.404 70.0737C146.717 70.0879 147.011 70.1121 147.288 70.1474C147.565 70.1753 147.794 70.2105 147.976 70.2526V71.5789C147.794 71.551 147.579 71.53 147.332 71.5158C147.092 71.4947 146.84 71.4805 146.578 71.4737C146.316 71.4595 146.069 71.4526 145.836 71.4526C145.552 71.4526 145.327 71.4632 145.159 71.4842C144.991 71.4984 144.86 71.53 144.766 71.5789C144.664 71.6353 144.598 71.7089 144.569 71.8C144.548 71.891 144.537 72.0068 144.537 72.1474C144.537 72.3226 144.551 72.4595 144.58 72.5579C144.609 72.6489 144.675 72.7121 144.777 72.7474C144.879 72.7826 145.035 72.8142 145.246 72.8421L146.742 73.0105C146.946 73.0316 147.131 73.0668 147.299 73.1158C147.474 73.1647 147.63 73.2421 147.768 73.3474C147.914 73.4526 148.034 73.6037 148.129 73.8C148.18 73.891 148.22 74.0037 148.249 74.1368C148.278 74.2632 148.303 74.4105 148.325 74.5789C148.347 74.7474 148.358 74.9368 148.358 75.1474C148.358 75.5616 148.314 75.9121 148.227 76.2C148.14 76.4805 148.016 76.7053 147.856 76.8737C147.696 77.0353 147.503 77.1616 147.277 77.2526C147.052 77.3368 146.801 77.3895 146.524 77.4105C146.255 77.4384 145.967 77.4526 145.661 77.4526ZM151.92 77.4526C151.395 77.4526 150.963 77.421 150.62 77.3579C150.278 77.2947 150.005 77.1963 149.801 77.0632C149.605 76.9226 149.456 76.7437 149.354 76.5263C149.259 76.3089 149.197 76.0489 149.168 75.7474C149.146 75.4458 149.135 75.0947 149.135 74.6947C149.135 74.2105 149.157 73.7931 149.201 73.4421C149.252 73.091 149.361 72.8037 149.528 72.5789C149.696 72.3542 149.954 72.1895 150.304 72.0842C150.66 71.9721 151.141 71.9158 151.745 71.9158C152.232 71.9158 152.629 71.951 152.935 72.021C153.241 72.0842 153.481 72.1858 153.656 72.3263C153.837 72.4595 153.965 72.6353 154.038 72.8526C154.118 73.07 154.169 73.3332 154.191 73.6421C154.212 73.9437 154.223 74.2947 154.223 74.6947V75.1053H150.871C150.871 75.3437 150.882 75.5368 150.904 75.6842C150.926 75.8247 150.984 75.93 151.079 76C151.173 76.07 151.319 76.1195 151.516 76.1474C151.712 76.1684 151.985 76.1789 152.334 76.1789C152.473 76.1789 152.636 76.1753 152.826 76.1684C153.015 76.1616 153.212 76.1511 153.415 76.1368C153.627 76.1226 153.823 76.1089 154.005 76.0947V77.2737C153.845 77.3089 153.648 77.3405 153.415 77.3684C153.19 77.3963 152.946 77.4174 152.684 77.4316C152.422 77.4458 152.167 77.4526 151.92 77.4526ZM152.575 74.4V74.2316C152.575 73.9789 152.56 73.7789 152.531 73.6316C152.509 73.4842 152.465 73.3753 152.4 73.3053C152.342 73.2279 152.258 73.1789 152.149 73.1579C152.04 73.1368 151.902 73.1263 151.734 73.1263C151.545 73.1263 151.392 73.1405 151.275 73.1684C151.166 73.1895 151.083 73.2384 151.024 73.3158C150.966 73.3932 150.926 73.5053 150.904 73.6526C150.882 73.8 150.871 73.9931 150.871 74.2316H152.76L152.575 74.4ZM155.18 77.3684V72H156.84L156.883 72.9158H156.982C157.084 72.6563 157.211 72.4526 157.364 72.3053C157.524 72.1579 157.717 72.0563 157.943 72C158.168 71.9437 158.43 71.9158 158.729 71.9158V73.4632C158.27 73.4632 157.91 73.5195 157.648 73.6316C157.386 73.7437 157.2 73.9368 157.091 74.2105C156.982 74.4774 156.927 74.8526 156.927 75.3368V77.3684H155.18ZM160.586 77.3684L158.905 72H160.696L161.733 75.8632H161.842L162.846 72H164.615L162.945 77.3684H160.586ZM165.203 70.9053V69.5474H167.004V70.9053H165.203ZM165.224 77.3684V72H166.993V77.3684H165.224ZM170.368 77.4526C169.902 77.4526 169.52 77.4142 169.222 77.3368C168.923 77.2526 168.687 77.1368 168.512 76.9895C168.338 76.8353 168.21 76.6458 168.13 76.421C168.05 76.1963 167.999 75.9405 167.977 75.6526C167.956 75.3579 167.945 75.0353 167.945 74.6842C167.945 74.3405 167.956 74.0247 167.977 73.7368C167.999 73.4489 168.054 73.1932 168.141 72.9684C168.228 72.7368 168.356 72.5437 168.523 72.3895C168.698 72.2353 168.931 72.1195 169.222 72.0421C169.52 71.9579 169.899 71.9158 170.357 71.9158C170.648 71.9158 170.939 71.93 171.231 71.9579C171.529 71.9858 171.795 72.0279 172.028 72.0842V73.2737C171.882 73.2526 171.693 73.2353 171.46 73.221C171.234 73.2068 171.024 73.2 170.827 73.2C170.572 73.2 170.372 73.221 170.226 73.2632C170.081 73.2984 169.972 73.3684 169.899 73.4737C169.826 73.5721 169.775 73.7195 169.746 73.9158C169.724 74.1121 169.713 74.3684 169.713 74.6842C169.713 75 169.724 75.2595 169.746 75.4632C169.775 75.6595 169.826 75.8105 169.899 75.9158C169.972 76.0142 170.085 76.0805 170.237 76.1158C170.39 76.151 170.59 76.1684 170.838 76.1684C171.013 76.1684 171.209 76.1616 171.427 76.1474C171.653 76.1331 171.867 76.1158 172.072 76.0947V77.2842C171.831 77.3332 171.559 77.3721 171.253 77.4C170.947 77.4353 170.652 77.4526 170.368 77.4526ZM175.564 77.4526C175.04 77.4526 174.607 77.421 174.265 77.3579C173.923 77.2947 173.65 77.1963 173.446 77.0632C173.25 76.9226 173.1 76.7437 172.999 76.5263C172.904 76.3089 172.842 76.0489 172.813 75.7474C172.791 75.4458 172.78 75.0947 172.78 74.6947C172.78 74.2105 172.802 73.7931 172.846 73.4421C172.897 73.091 173.006 72.8037 173.173 72.5789C173.34 72.3542 173.599 72.1895 173.948 72.0842C174.305 71.9721 174.785 71.9158 175.39 71.9158C175.877 71.9158 176.274 71.951 176.58 72.021C176.885 72.0842 177.126 72.1858 177.3 72.3263C177.482 72.4595 177.609 72.6353 177.682 72.8526C177.762 73.07 177.813 73.3332 177.835 73.6421C177.857 73.9437 177.868 74.2947 177.868 74.6947V75.1053H174.516C174.516 75.3437 174.527 75.5368 174.549 75.6842C174.571 75.8247 174.629 75.93 174.724 76C174.818 76.07 174.964 76.1195 175.16 76.1474C175.357 76.1684 175.63 76.1789 175.979 76.1789C176.117 76.1789 176.281 76.1753 176.471 76.1684C176.659 76.1616 176.856 76.1511 177.06 76.1368C177.271 76.1226 177.467 76.1089 177.65 76.0947V77.2737C177.489 77.3089 177.293 77.3405 177.06 77.3684C176.834 77.3963 176.591 77.4174 176.329 77.4316C176.067 77.4458 175.812 77.4526 175.564 77.4526ZM176.219 74.4V74.2316C176.219 73.9789 176.205 73.7789 176.176 73.6316C176.154 73.4842 176.11 73.3753 176.045 73.3053C175.986 73.2279 175.903 73.1789 175.794 73.1579C175.684 73.1368 175.546 73.1263 175.379 73.1263C175.189 73.1263 175.036 73.1405 174.92 73.1684C174.811 73.1895 174.727 73.2384 174.669 73.3158C174.611 73.3932 174.571 73.5053 174.549 73.6526C174.527 73.8 174.516 73.9931 174.516 74.2316H176.405L176.219 74.4ZM180.986 77.4526C180.754 77.4526 180.499 77.4458 180.222 77.4316C179.953 77.4174 179.687 77.4 179.425 77.3789C179.171 77.3579 178.941 77.3332 178.737 77.3053V76.1158C178.854 76.1226 178.985 76.1331 179.13 76.1474C179.283 76.1616 179.44 76.1721 179.6 76.1789C179.76 76.1858 179.913 76.1932 180.058 76.2C180.211 76.2 180.35 76.2 180.473 76.2C180.815 76.2 181.059 76.1895 181.205 76.1684C181.357 76.1474 181.452 76.1053 181.489 76.0421C181.532 75.9721 181.554 75.8805 181.554 75.7684C181.554 75.6563 181.54 75.5753 181.51 75.5263C181.489 75.4774 181.438 75.4421 181.357 75.421C181.285 75.4 181.158 75.3789 180.975 75.3579L179.676 75.2C179.363 75.1579 179.127 75.07 178.966 74.9368C178.806 74.7963 178.697 74.6105 178.639 74.3789C178.588 74.1405 178.562 73.8632 178.562 73.5474C178.562 73.1753 178.621 72.8842 178.737 72.6737C178.854 72.4563 179.014 72.2947 179.218 72.1895C179.429 72.0774 179.676 72.0037 179.96 71.9684C180.251 71.9332 180.56 71.9158 180.888 71.9158C181.121 71.9158 181.361 71.9226 181.609 71.9368C181.856 71.951 182.093 71.9721 182.318 72C182.544 72.021 182.73 72.0458 182.875 72.0737V73.2526C182.693 73.2384 182.501 73.2247 182.296 73.2105C182.1 73.1963 181.911 73.1858 181.729 73.1789C181.547 73.1721 181.394 73.1684 181.27 73.1684C180.979 73.1684 180.754 73.1753 180.593 73.1895C180.44 73.2037 180.335 73.2384 180.277 73.2947C180.226 73.351 180.2 73.4421 180.2 73.5684C180.2 73.6668 180.208 73.7437 180.222 73.8C180.244 73.8489 180.291 73.8842 180.364 73.9053C180.437 73.9263 180.55 73.9474 180.702 73.9684L182.013 74.1263C182.26 74.1542 182.471 74.2105 182.646 74.2947C182.821 74.3789 182.952 74.53 183.039 74.7474C183.134 74.9647 183.181 75.2911 183.181 75.7263C183.181 76.1195 183.126 76.4316 183.017 76.6632C182.916 76.8879 182.766 77.0595 182.569 77.1789C182.373 77.291 182.14 77.3647 181.871 77.4C181.609 77.4353 181.314 77.4526 180.986 77.4526ZM189.884 77.4526C189.323 77.4526 188.851 77.4174 188.465 77.3474C188.079 77.2774 187.759 77.1616 187.504 77C187.249 76.8316 187.049 76.6068 186.903 76.3263C186.765 76.0384 186.667 75.6842 186.609 75.2632C186.558 74.8421 186.532 74.3368 186.532 73.7474C186.532 73.1579 186.558 72.6526 186.609 72.2316C186.667 71.8105 186.769 71.4595 186.914 71.1789C187.06 70.8911 187.26 70.6668 187.515 70.5053C187.77 70.3368 188.09 70.2174 188.476 70.1474C188.862 70.0774 189.331 70.0421 189.884 70.0421C190.131 70.0421 190.408 70.0526 190.714 70.0737C191.019 70.0947 191.321 70.1226 191.62 70.1579C191.926 70.1932 192.21 70.2353 192.472 70.2842V71.6C192.224 71.5647 191.976 71.5405 191.729 71.5263C191.489 71.5053 191.267 71.4879 191.063 71.4737C190.86 71.4595 190.692 71.4526 190.561 71.4526C190.168 71.4526 189.844 71.4595 189.589 71.4737C189.334 71.4879 189.127 71.5332 188.967 71.6105C188.807 71.6805 188.687 71.7963 188.607 71.9579C188.526 72.1195 188.472 72.3474 188.443 72.6421C188.421 72.93 188.41 73.2984 188.41 73.7474C188.41 74.1474 188.417 74.4842 188.432 74.7579C188.454 75.0316 188.494 75.2563 188.552 75.4316C188.618 75.6068 188.705 75.7437 188.814 75.8421C188.93 75.9332 189.08 75.9963 189.262 76.0316C189.451 76.0668 189.68 76.0842 189.95 76.0842C190.037 76.0842 190.131 76.0842 190.233 76.0842C190.335 76.0774 190.434 76.07 190.528 76.0632C190.623 76.0563 190.703 76.0526 190.768 76.0526V74.4842H189.698V73.1684H192.504V77.221C192.242 77.27 191.955 77.3121 191.642 77.3474C191.329 77.3753 191.019 77.4 190.714 77.4211C190.408 77.4421 190.131 77.4526 189.884 77.4526ZM193.673 77.3684V72H195.332L195.376 72.9158H195.474C195.576 72.6563 195.703 72.4526 195.856 72.3053C196.016 72.1579 196.209 72.0563 196.435 72C196.66 71.9437 196.922 71.9158 197.221 71.9158V73.4632C196.762 73.4632 196.402 73.5195 196.14 73.6316C195.878 73.7437 195.692 73.9368 195.583 74.2105C195.474 74.4774 195.419 74.8526 195.419 75.3368V77.3684H193.673ZM200.324 77.4526C199.83 77.4526 199.418 77.4247 199.091 77.3684C198.763 77.3121 198.505 77.221 198.316 77.0947C198.127 76.9684 197.988 76.8 197.901 76.5895C197.813 76.3789 197.755 76.1158 197.726 75.8C197.704 75.4842 197.693 75.1089 197.693 74.6737C197.693 74.2384 197.704 73.8668 197.726 73.5579C197.755 73.2421 197.813 72.9789 197.901 72.7684C197.988 72.5579 198.127 72.3895 198.316 72.2632C198.505 72.1368 198.763 72.0489 199.091 72C199.418 71.9437 199.83 71.9158 200.324 71.9158C200.827 71.9158 201.242 71.9437 201.569 72C201.897 72.0489 202.155 72.1368 202.344 72.2632C202.534 72.3895 202.672 72.5579 202.759 72.7684C202.847 72.9789 202.901 73.2421 202.923 73.5579C202.952 73.8668 202.967 74.2384 202.967 74.6737C202.967 75.1089 202.952 75.4842 202.923 75.8C202.901 76.1158 202.847 76.3789 202.759 76.5895C202.672 76.8 202.534 76.9684 202.344 77.0947C202.155 77.221 201.897 77.3121 201.569 77.3684C201.242 77.4247 200.827 77.4526 200.324 77.4526ZM200.324 76.1684C200.543 76.1684 200.714 76.1542 200.838 76.1263C200.962 76.0984 201.049 76.0353 201.1 75.9368C201.151 75.8384 201.18 75.6879 201.187 75.4842C201.202 75.2805 201.209 75.0105 201.209 74.6737C201.209 74.3368 201.202 74.07 201.187 73.8737C201.18 73.6774 201.151 73.53 201.1 73.4316C201.049 73.3332 200.962 73.27 200.838 73.2421C200.714 73.2142 200.543 73.2 200.324 73.2C200.106 73.2 199.935 73.2142 199.811 73.2421C199.695 73.27 199.612 73.3332 199.56 73.4316C199.509 73.53 199.477 73.6774 199.462 73.8737C199.455 74.07 199.451 74.3368 199.451 74.6737C199.451 75.0105 199.455 75.2805 199.462 75.4842C199.477 75.6879 199.509 75.8384 199.56 75.9368C199.612 76.0353 199.695 76.0984 199.811 76.1263C199.935 76.1542 200.106 76.1684 200.324 76.1684ZM205.612 77.4526C205.24 77.4526 204.942 77.4068 204.716 77.3158C204.491 77.2247 204.319 77.091 204.203 76.9158C204.087 76.7405 204.01 76.5226 203.974 76.2632C203.937 76.0037 203.919 75.7016 203.919 75.3579V72H205.666V74.8421C205.666 75.13 205.673 75.3579 205.688 75.5263C205.71 75.6879 205.746 75.8068 205.797 75.8842C205.848 75.9616 205.924 76.0105 206.026 76.0316C206.129 76.0458 206.267 76.0526 206.441 76.0526C206.631 76.0526 206.78 76.0353 206.889 76C207.005 75.9579 207.089 75.8911 207.14 75.8C207.191 75.7089 207.224 75.5826 207.238 75.421C207.26 75.2526 207.271 75.0458 207.271 74.8V72H209.029V77.3684H207.358L207.315 76.7158H207.217C207.114 76.8984 206.983 77.0458 206.823 77.1579C206.664 77.2632 206.481 77.3368 206.278 77.3789C206.074 77.4279 205.852 77.4526 205.612 77.4526ZM210.152 79.4632V72H211.811L211.855 72.6526H211.953C212.07 72.4489 212.208 72.2947 212.368 72.1895C212.535 72.0842 212.721 72.0142 212.925 71.9789C213.129 71.9368 213.332 71.9158 213.536 71.9158C213.864 71.9158 214.14 71.9579 214.366 72.0421C214.599 72.1263 214.788 72.2737 214.934 72.4842C215.087 72.6879 215.196 72.9684 215.262 73.3263C215.334 73.6842 215.371 74.1332 215.371 74.6737C215.371 75.2068 215.334 75.6526 215.262 76.0105C215.196 76.3684 215.09 76.6526 214.945 76.8631C214.799 77.0737 214.61 77.2247 214.377 77.3158C214.151 77.4068 213.875 77.4526 213.547 77.4526C213.336 77.4526 213.132 77.4353 212.936 77.4C212.739 77.3647 212.561 77.3016 212.401 77.2105C212.248 77.1121 212.113 76.9753 211.997 76.8H211.899V79.4632H210.152ZM212.75 76.0632C212.947 76.0632 213.103 76.0489 213.22 76.021C213.336 75.9932 213.42 75.9368 213.471 75.8526C213.529 75.7616 213.565 75.6247 213.58 75.4421C213.602 75.2595 213.613 75.0068 213.613 74.6842C213.613 74.3616 213.602 74.1089 213.58 73.9263C213.565 73.7368 213.529 73.6 213.471 73.5158C213.42 73.4247 213.336 73.3684 213.22 73.3474C213.103 73.3195 212.947 73.3053 212.75 73.3053C212.539 73.3053 212.375 73.3332 212.259 73.3895C212.15 73.4384 212.066 73.5263 212.008 73.6526C211.964 73.7647 211.935 73.9089 211.921 74.0842C211.906 74.2526 211.899 74.4526 211.899 74.6842C211.899 74.9226 211.906 75.1263 211.921 75.2947C211.935 75.4632 211.96 75.5963 211.997 75.6947C212.055 75.8353 212.142 75.9332 212.259 75.9895C212.375 76.0384 212.539 76.0632 212.75 76.0632Z" fill="black"/>
<g filter="url(#filter0_i_115_127)">
<g filter="url(#filter1_d_115_127)">
<path d="M87.3448 51.8306H59.2697C56.2547 51.8306 53.8106 54.187 53.8106 57.0937V84.1167C53.8106 87.0235 56.2547 89.3799 59.2697 89.3799H87.3448C90.3598 89.3799 92.8039 87.0235 92.8039 84.1167V57.0937C92.8039 54.187 90.3598 51.8306 87.3448 51.8306Z" fill="url(#paint0_linear_115_127)"/>
</g>
<g filter="url(#filter2_i_115_127)">
<path d="M74.8595 56.6558C74.7317 56.6558 74.6073 56.6984 74.5232 56.7705C74.4381 56.8431 74.3796 56.9405 74.3796 57.1179V61.2758H76.4524C76.4333 60.9589 76.417 60.6415 76.4011 60.3521H75.3393V57.1179C75.3393 56.9405 75.2809 56.8431 75.1958 56.7705C75.1117 56.6984 74.9872 56.6558 74.8595 56.6558ZM87.6539 56.6558C87.5261 56.6558 87.4017 56.6984 87.3182 56.7705C87.2319 56.8431 87.1746 56.9405 87.1746 57.1179V60.3521H86.205C86.2242 60.6447 86.2465 60.9616 86.2689 61.2758H88.1337V57.1179C88.1337 56.9405 88.0764 56.8431 87.9902 56.7705C87.9066 56.6984 87.7822 56.6558 87.6539 56.6558ZM76.9547 59.8715C77.012 61.0021 77.1015 62.431 77.1627 63.8942L77.22 63.8389C77.5754 63.5063 78.0039 63.1305 78.5312 63.1147C78.8037 63.1089 79.04 63.2163 79.2256 63.3521C79.4113 63.4873 79.5581 63.6537 79.7022 63.8079C79.9839 64.1189 80.2203 64.3468 80.4441 64.3594C80.6652 64.3715 80.9114 64.19 81.2182 63.931C81.5223 63.6694 81.8837 63.3337 82.4017 63.3521C82.9809 63.3768 83.3423 63.8142 83.6589 64.15C83.8189 64.3163 83.9663 64.4642 84.1039 64.5563C84.2382 64.6489 84.3435 64.6826 84.4653 64.6705C84.6891 64.6426 85.1143 64.2852 85.4184 63.8879C85.5942 63.66 85.735 63.4352 85.8245 63.2842C85.7476 62.0489 85.6613 60.8726 85.5942 59.8715C82.6834 60.0252 79.8076 59.9915 76.9547 59.8715ZM78.5509 63.6694C78.362 63.6752 77.9395 63.9373 77.6229 64.2363C77.4405 64.4052 77.2871 64.5715 77.191 64.6889C77.2074 65.1942 77.2167 65.6989 77.22 66.1921C77.2648 66.1552 77.3062 66.1179 77.351 66.081C77.7768 65.7268 78.2949 65.3294 78.8801 65.3847C79.1454 65.4126 79.3501 65.5668 79.491 65.7331C79.6318 65.8963 79.7312 66.0842 79.824 66.2537C79.9195 66.4263 80.0096 66.58 80.0925 66.6789C80.1755 66.7742 80.2334 66.8079 80.3098 66.811C80.4124 66.8173 80.4954 66.7805 80.6172 66.6726C80.7383 66.5616 80.8666 66.3863 81.0042 66.1984C81.1418 66.0105 81.2853 65.8068 81.471 65.6405C81.6473 65.4837 81.8837 65.3573 82.1621 65.3605C82.1779 65.3605 82.197 65.3605 82.2161 65.3637C82.5235 65.391 82.7604 65.5726 82.9171 65.7763C83.077 65.9794 83.1824 66.2105 83.2877 66.4289C83.3936 66.6447 83.4957 66.8479 83.5983 66.9805C83.7004 67.1131 83.7774 67.1621 83.8893 67.1715C84.0362 67.1837 84.2573 67.1163 84.4936 66.971C84.7306 66.8237 84.98 66.611 85.2006 66.3921C85.5975 65.9979 85.8884 65.61 85.9463 65.5326C85.9266 65.0952 85.9043 64.6547 85.8819 64.2173C85.5429 64.6547 85.1242 65.1542 84.5357 65.2184C84.2409 65.2526 83.9788 65.151 83.7709 65.0089C83.5629 64.8705 83.3969 64.6921 83.2337 64.5226C82.9138 64.1837 82.6354 63.9158 82.3761 63.9063C82.1555 63.8973 81.906 64.0852 81.5992 64.3437C81.2952 64.6058 80.9305 64.9415 80.4124 64.9137C79.8747 64.8858 79.5488 64.4826 79.2671 64.1742C79.1296 64.0205 78.9953 63.8821 78.8768 63.7926C78.7556 63.7031 78.6595 63.6663 78.5509 63.6694ZM82.1266 65.9179C82.0403 65.9179 81.9666 65.9547 81.8613 66.0473C81.7428 66.1552 81.6118 66.3273 81.4775 66.5152C81.3399 66.7031 81.1958 66.9068 81.0102 67.0758C80.8251 67.2421 80.5724 67.3842 80.2716 67.3658C80.0063 67.3468 79.795 67.1994 79.6509 67.0358C79.5101 66.8726 79.4113 66.6847 79.3152 66.5152C79.2224 66.3431 79.1328 66.1858 79.0466 66.0842C78.9603 65.9826 78.8992 65.9458 78.8228 65.9394C78.6017 65.9147 78.1125 66.1768 77.732 66.5C77.5241 66.6758 77.345 66.851 77.22 66.9773C77.2134 67.7689 77.1818 68.5115 77.1146 69.1615C80.6586 68.8747 83.2593 69.7005 85.9174 70.3658C86.0162 69.2042 86.0227 67.8215 85.978 66.3889C85.8693 66.5121 85.7476 66.6447 85.6133 66.7773C85.3736 67.0173 85.0985 67.2547 84.8043 67.4363C84.5067 67.6179 84.1868 67.7537 83.838 67.7258C83.5312 67.6984 83.2943 67.5163 83.1376 67.3131C82.9777 67.11 82.8723 66.8789 82.7664 66.66C82.661 66.4447 82.5584 66.241 82.4563 66.1089C82.3537 65.9763 82.2773 65.9273 82.1653 65.9179C82.1522 65.9179 82.1397 65.9147 82.1266 65.9179Z" fill="url(#paint1_radial_115_127)"/>
</g>
<g filter="url(#filter3_i_115_127)">
<path d="M66.8909 70.4595C66.8347 70.5142 66.7773 70.65 66.8385 70.9547C66.8991 71.259 67.0809 71.6916 67.4095 72.2111L67.4122 72.2158L67.4155 72.2205C68.8742 74.7053 71.4612 76.0474 73.7289 78.2032C73.8714 78.3384 73.9189 78.5153 73.9265 78.6716C73.9342 78.8279 73.9079 78.9811 73.8637 79.1426C73.7764 79.4658 73.6126 79.8232 73.409 80.1937C73.0662 80.8168 72.6142 81.4542 72.1862 81.93L72.5978 82.3211L79.2824 75.7995L78.8708 75.4079C78.3827 75.8263 77.7266 76.27 77.0835 76.6084C76.7019 76.8095 76.3329 76.9711 75.9988 77.06C75.8312 77.1042 75.6723 77.1321 75.5102 77.1263C75.3481 77.1211 75.1635 77.0779 75.0211 76.9426C72.8615 74.89 71.7145 72.51 68.7273 70.9416L68.7218 70.9384L68.7164 70.9353C68.1732 70.6263 67.7217 70.4563 67.4046 70.4021C67.088 70.3474 66.9471 70.4042 66.8909 70.4595ZM68.0007 71.5142C68.0597 71.4563 68.1416 71.4221 68.242 71.4121C68.3424 71.4026 68.4593 71.4179 68.5854 71.4574C68.7115 71.4974 68.8452 71.5605 68.9784 71.6432C69.1111 71.7263 69.241 71.8274 69.3611 71.9411C69.4807 72.0547 69.5871 72.179 69.675 72.3058C69.7629 72.4326 69.83 72.5605 69.8732 72.6816C69.9157 72.8026 69.9332 72.9147 69.9245 73.0116C69.9157 73.1079 69.8808 73.1874 69.8218 73.2453C69.7028 73.3616 69.4927 73.3816 69.2377 73.3016C68.9822 73.2216 68.7033 73.0474 68.462 72.8179C68.3424 72.7042 68.2354 72.5805 68.1476 72.4537C68.0597 72.3263 67.9925 72.199 67.9499 72.0774C67.9068 71.9563 67.8893 71.8442 67.8981 71.7479C67.9068 71.6511 67.9417 71.5716 68.0007 71.5142ZM73.1098 82.8079L73.5084 83.1868L80.193 76.6647L79.795 76.2863L73.1098 82.8079ZM74.0204 83.6737L74.4189 84.0521L81.1035 77.5305L80.7056 77.1516L74.0204 83.6737ZM74.9272 84.5426C75.8006 85.3784 77.1992 86.7916 77.8063 88.6405L78.5585 87.9063C78.5662 87.4726 78.5487 87.0695 78.5083 86.6947C78.7185 86.8705 78.9128 87.1311 79.0837 87.3942L80.1084 86.3942C79.9227 86.0426 79.6716 85.7405 79.4489 85.4174C79.7994 85.6153 80.158 85.8058 80.4719 86.0395L82.0862 84.4647C81.8187 84.3737 81.567 84.2242 81.3208 84.0532C81.7144 84.1121 82.1255 84.0842 82.5436 84.0179L83.5634 83.0237C83.416 82.6268 83.2533 82.2453 83.0339 81.92C83.4848 82.0084 83.8118 82.2342 84.1235 82.4768L84.9134 81.7063C84.7704 81.6011 84.6574 81.4595 84.5449 81.1668C84.8124 81.3058 85.075 81.3163 85.3425 81.2874L85.9124 80.7321C83.9843 80.1721 82.4989 78.8437 81.62 78.0137L74.9272 84.5426Z" fill="url(#paint2_radial_115_127)"/>
</g>
<g filter="url(#filter4_i_115_127)">
<mask id="mask0_115_127" style="mask-type:luminance" maskUnits="userSpaceOnUse" x="56" y="55" width="18" height="16">
<path d="M73.1515 61.8159L63.771 55.0784L56.7743 64.1115L66.1549 70.8491L73.1515 61.8159Z" fill="white"/>
</mask>
<g mask="url(#mask0_115_127)">
<path d="M66.6381 57.6483C66.6174 57.633 66.5956 57.6183 66.5743 57.6036C66.1081 57.2788 65.6047 57.0462 65.1238 56.9441C66.5568 58.1915 67.1557 60.0994 65.6348 60.6757C65.5534 60.7067 65.4726 60.7362 65.3929 60.7662L65.3989 60.7757C65.3487 60.8057 65.317 60.8599 65.3116 60.9746C65.3056 61.0894 65.3378 61.2467 65.4044 61.3972C65.471 61.5483 65.5709 61.6925 65.6773 61.7915C65.7767 61.8841 65.876 61.933 65.9601 61.9415C66.0284 61.9167 66.0971 61.8909 66.1665 61.8657C66.6818 61.9988 67.0699 62.8309 66.9619 63.2394C67.1808 63.0062 67.4903 62.7978 67.8604 62.6441C68.1416 62.5278 68.4227 62.4567 68.6842 62.433C68.2131 62.2941 68.2267 61.9183 68.4451 61.322C68.6553 60.7488 68.4254 60.0078 68.1972 59.5009C67.8692 58.773 67.2938 58.1204 66.6381 57.6483ZM69.3513 62.9451C69.2781 62.892 69.1602 62.8509 68.9899 62.8383C68.73 62.8194 68.3807 62.8767 68.0291 63.022C67.6781 63.1678 67.3953 63.373 67.231 63.5672C67.0667 63.762 67.0361 63.9178 67.0781 64.0109C67.1196 64.1041 67.2588 64.1909 67.5181 64.2099C67.778 64.2288 68.1268 64.172 68.4784 64.0267C68.8294 63.8809 69.1122 63.6757 69.2765 63.4809C69.4408 63.2867 69.4719 63.1304 69.4299 63.0373C69.4195 63.0136 69.4031 62.9909 69.3802 62.9694C69.3715 62.9615 69.3617 62.953 69.3513 62.9451ZM64.8841 60.9525C60.2357 62.622 58.1275 62.5246 57.8474 63.5336C57.7191 63.9962 57.9271 64.5894 58.4659 64.7678C59.585 65.1394 60.8493 63.8988 65.4377 62.1388C65.418 62.1225 65.3989 62.1057 65.3804 62.0878C65.2226 61.9415 65.0987 61.7551 65.0119 61.5583C64.9251 61.3615 64.8738 61.1541 64.8841 60.9546C64.8841 60.9536 64.8841 60.9525 64.8841 60.9525ZM69.2732 66.0867L66.9433 65.0288L67.6715 65.9783L66.2129 69.0199L66.6005 69.193L68.0575 66.1536L69.2732 66.0867ZM65.3902 63.733L62.8397 64.0809L63.9894 64.4894L64.3137 66.5778L62.73 67.7715L62.9937 68.0957L64.3863 67.0457L64.5042 67.8036L64.9262 67.7425L64.7728 66.7546L65.733 66.0304L66.8598 66.4946L65.2564 64.5536L65.4666 65.7083L64.7002 66.2862L64.4119 64.432L65.3902 63.733Z" fill="url(#paint3_radial_115_127)"/>
</g>
</g>
<g filter="url(#filter5_d_115_127)">
<path d="M44.4523 51.9246H16.3771C13.3622 51.9246 10.9181 54.281 10.9181 57.1877V84.2107C10.9181 87.1175 13.3622 89.4739 16.3771 89.4739H44.4523C47.4673 89.4739 49.9114 87.1175 49.9114 84.2107V57.1877C49.9114 54.281 47.4673 51.9246 44.4523 51.9246Z" fill="url(#paint4_linear_115_127)"/>
</g>
<g filter="url(#filter6_i_115_127)">
<path d="M34.9837 66.1185C34.8 66.1211 34.6252 66.139 34.4639 66.1722C33.9352 66.2811 33.308 66.5922 32.86 67.0038C32.4164 67.4154 32.1655 67.8959 32.2238 68.3848L32.3044 69.0096L31.6861 68.798C30.4079 68.3501 29.4451 68.8027 28.7238 69.6743C28.002 70.5501 27.6139 71.8659 27.7228 72.9617C27.8021 73.7643 28.381 74.5622 29.1933 75.1838C30.0051 75.8006 31.0365 76.2275 31.8788 76.3227C32.6225 76.4043 33.5992 75.9169 34.3609 75.3564C35.1271 74.7954 35.6691 74.2085 35.6691 74.2085L35.8798 73.9801L36.1575 74.1264C36.1575 74.1264 36.6593 74.3811 37.2776 74.6527C37.8959 74.929 38.6531 75.2138 39.0249 75.2701C39.3296 75.3175 39.9748 75.1532 40.4945 74.9422C41.0142 74.7264 41.4219 74.4975 41.4219 74.4975L41.7803 74.2948L41.9775 74.6485C41.9775 74.6485 42.3359 75.2869 42.9273 75.9169C43.5187 76.5511 44.3162 77.1296 45.1137 77.1206C45.9023 77.1122 46.5654 76.5254 47.0761 75.6322C47.5869 74.739 47.9005 73.5785 47.9766 72.6811C48.0976 71.3306 47.4525 69.5748 46.3189 68.9406C46.0456 68.7896 45.2661 68.8111 44.594 68.9538C43.9219 69.1001 43.3574 69.3117 43.3574 69.3117L42.5779 69.6006L42.8243 68.8327C42.8243 68.8327 42.9228 68.5248 42.8377 68.1464C42.7526 67.7685 42.533 67.3427 41.6908 67.0517C40.5169 66.6438 39.9165 66.8506 39.5581 67.1017C39.1997 67.3532 39.0966 67.669 39.0966 67.669L38.8189 68.4927L38.3618 67.7448C38.0706 67.2601 37.4299 66.7722 36.6907 66.4669C36.1351 66.2375 35.5303 66.1106 34.9837 66.1185ZM36.05 74.9464C35.938 75.0585 35.7767 75.2138 35.5661 75.399C35.6064 75.7317 35.593 76.0764 35.4765 76.4648C35.4227 76.6333 35.0195 76.469 34.5222 76.2059C34.0786 76.5038 33.5858 76.7801 33.0571 76.948C33.5141 77.1769 34.0249 77.3927 34.6342 77.6254C34.4236 81.9269 34.7372 84.6322 31.1754 85.8317H35.9245V80.9996C35.9245 79.619 39.3296 79.619 39.3296 80.9996V85.8317H44.7956C44.1236 85.3527 43.0527 85.0638 41.3278 84.7917C39.9703 80.7533 40.5393 79.2348 43.111 77.1511C42.8153 76.9311 42.5554 76.6806 42.327 76.439C42.2284 76.3354 42.1433 76.2322 42.0626 76.1369C41.6504 76.5554 41.1934 76.8448 40.7633 76.7369C40.4094 76.6464 40.1898 76.3311 40.0599 75.9211C39.679 76.029 39.2848 76.0938 38.8995 76.038C38.5366 75.9859 38.1154 75.848 37.6988 75.6796C37.6405 75.9906 37.4837 76.2969 37.1701 76.6201C36.9774 76.8185 36.6952 75.9859 36.4129 75.119C36.274 75.0543 36.153 74.9938 36.05 74.9464ZM38.3887 82.7422C38.2818 82.7422 38.1792 82.7833 38.1036 82.8564C38.0279 82.929 37.9855 83.028 37.9855 83.1306C37.9855 83.2338 38.0279 83.3327 38.1036 83.4054C38.1792 83.478 38.2818 83.519 38.3887 83.519C38.4957 83.519 38.5983 83.478 38.6739 83.4054C38.7495 83.3327 38.7919 83.2338 38.7919 83.1306C38.7919 83.028 38.7495 82.929 38.6739 82.8564C38.5983 82.7833 38.4957 82.7422 38.3887 82.7422Z" fill="url(#paint5_radial_115_127)"/>
</g>
<g filter="url(#filter7_i_115_127)">
<path d="M24.9001 71.879C24.4542 69.6985 23.6025 68.4006 23.1047 67.7995L23.0648 67.7527L23.01 67.719C22.4453 67.4158 22.11 66.8269 22.146 66.2032C22.1982 65.2969 22.9976 64.6079 23.9424 64.6585C24.8838 64.709 25.599 65.4785 25.5468 66.3848C25.5299 66.6779 25.4322 66.9564 25.2653 67.2037L25.1529 67.369L25.2565 67.5422C25.8438 68.4995 25.8527 69.3306 25.6224 70.1848C25.4731 70.7443 25.1955 71.3106 24.9001 71.879ZM20.8432 67.7437C20.5745 67.7258 20.3185 67.6711 20.1114 67.5679C19.9858 67.2843 19.9288 66.919 19.7935 66.5558C19.716 66.3606 19.6071 66.1564 19.4136 66.0027C19.2304 65.8558 18.9833 65.7711 18.7035 65.7595C16.7242 65.3016 15.489 64.6853 14.6769 63.9922C13.8577 63.3027 13.4479 62.5285 13.1445 61.6953L13.1447 61.6922C13.0922 61.5558 13.1113 61.4716 13.1663 61.3785C13.2253 61.2795 13.3409 61.1827 13.4795 61.1185C13.6216 61.0543 13.7863 61.029 13.9136 61.039C14.037 61.0527 14.1163 61.0943 14.1693 61.159C14.5718 61.6895 15.0555 62.4127 15.678 63.0069C16.304 63.6006 17.1036 64.0774 18.0866 64.0206C18.8416 63.979 19.2454 64.3016 19.8372 64.6885C20.2991 64.9901 20.8698 65.3111 21.6747 65.3885C21.565 65.6285 21.4966 65.8916 21.4807 66.1674C21.4487 66.7232 21.631 67.2558 21.9685 67.6806C21.7684 67.7043 21.55 67.7369 21.3221 67.7485C21.2012 67.7527 21.0803 67.7564 20.96 67.7501L20.8432 67.7437ZM29.2785 67.6064C28.3232 67.2443 27.3094 66.9132 26.1187 66.9316C26.1673 66.7669 26.2021 66.5943 26.2121 66.4206C26.2424 65.8958 26.0793 65.3979 25.7903 64.9932C26.8095 65.0543 27.4937 65.4395 28.0784 66.0111C28.5251 66.4516 28.9042 67.019 29.2785 67.6064ZM23.7969 67.1837C24.3029 67.2106 24.7437 66.8311 24.7718 66.3437C24.7999 65.8564 24.4055 65.4316 23.8994 65.4048C23.3934 65.3779 22.9526 65.7574 22.9245 66.2448C22.8965 66.7322 23.2908 67.1564 23.7969 67.1837ZM23.8338 66.5427C23.6852 66.5348 23.578 66.4232 23.5863 66.2801C23.5944 66.1406 23.7139 66.0374 23.8625 66.0453C24.0076 66.0532 24.1145 66.1685 24.1065 66.3079C24.0982 66.4511 23.9789 66.5506 23.8338 66.5427ZM23.0563 64.1427C22.9366 62.3385 22.2758 61.1169 21.4679 60.1679C20.5769 59.1222 19.5449 58.3664 18.8347 57.3848C18.7987 57.2701 18.7837 57.0369 18.8262 56.7932C18.8767 56.5327 18.9815 56.2543 19.1132 56.0632C19.2445 55.879 19.3732 55.8001 19.4871 55.7958C19.5938 55.7916 19.7889 55.8564 20.0681 56.1858C20.6396 57.3548 21.8019 59.1774 23.4279 60.0369C24.0719 60.379 24.362 60.8285 24.4982 61.3585C24.6311 61.8853 24.5923 62.4985 24.5025 63.0716C24.4327 63.5427 24.5088 63.8853 24.6079 64.1369C24.4095 64.0679 24.1988 64.0295 23.9793 64.0179C23.6573 64.0006 23.3421 64.0485 23.0563 64.1427Z" fill="url(#paint6_radial_115_127)"/>
</g>
<g filter="url(#filter8_d_115_127)">
<path d="M44.4523 10.5264H16.3771C13.3622 10.5264 10.9181 12.8828 10.9181 15.7895V42.8125C10.9181 45.7193 13.3622 48.0757 16.3771 48.0757H44.4523C47.4673 48.0757 49.9114 45.7193 49.9114 42.8125V15.7895C49.9114 12.8828 47.4673 10.5264 44.4523 10.5264Z" fill="url(#paint7_linear_115_127)"/>
</g>
<g filter="url(#filter9_i_115_127)">
<path d="M30.7048 20.086C30.6291 20.0256 30.5282 19.9919 30.4234 19.9919C30.3186 19.9919 30.2178 20.0256 30.142 20.086L20.7736 27.5472C20.7338 27.5788 20.7021 27.617 20.6805 27.6592C20.6589 27.7014 20.6478 27.7469 20.6478 27.7928L20.6463 34.7953C20.6463 35.1553 20.8179 35.5006 21.1233 35.7552C21.4286 36.0098 21.8428 36.1528 22.2747 36.1528H27.1651C27.381 36.1528 27.5881 36.0813 27.7408 35.954C27.8935 35.8267 27.9792 35.654 27.9792 35.474V29.7044C27.9792 29.6144 28.0221 29.528 28.0985 29.4644C28.1748 29.4007 28.2784 29.365 28.3864 29.365H32.4574C32.5654 29.365 32.6689 29.4007 32.7453 29.4644C32.8216 29.528 32.8645 29.6144 32.8645 29.7044V35.474C32.8645 35.654 32.9503 35.8267 33.103 35.954C33.2557 36.0813 33.4627 36.1528 33.6787 36.1528H38.567C38.9989 36.1528 39.4131 36.0098 39.7184 35.7552C40.0238 35.5006 40.1954 35.1553 40.1954 34.7953V27.7928C40.1955 27.7469 40.1844 27.7014 40.1628 27.6592C40.1411 27.617 40.1095 27.5788 40.0697 27.5472L30.7048 20.086Z" fill="url(#paint8_radial_115_127)"/>
<path d="M42.3758 26.1472L38.5694 23.1113V18.5046C38.5694 18.3246 38.4836 18.1519 38.3309 18.0246C38.1782 17.8973 37.9711 17.8258 37.7552 17.8258H35.3126C35.0967 17.8258 34.8895 17.8973 34.7369 18.0246C34.5842 18.1519 34.4983 18.3246 34.4983 18.5046V19.8621L31.5509 17.5127C31.2751 17.2802 30.865 17.147 30.4217 17.147C29.98 17.147 29.5709 17.2802 29.2951 17.5131L18.4712 26.1463C18.1547 26.4009 18.115 26.8196 18.403 27.0954C18.4754 27.165 18.5639 27.2216 18.6633 27.2618C18.7627 27.3019 18.8709 27.3248 18.9813 27.329C19.0916 27.3332 19.2018 27.3187 19.3052 27.2862C19.4086 27.2538 19.503 27.2041 19.5826 27.1403L30.1419 18.7286C30.2176 18.6681 30.3184 18.6344 30.4233 18.6344C30.5281 18.6344 30.6289 18.6681 30.7047 18.7286L41.265 27.1403C41.4205 27.2647 41.6289 27.3326 41.8443 27.3291C42.0599 27.3256 42.2648 27.251 42.4145 27.1217C42.7269 26.8519 42.701 26.4064 42.3758 26.1472Z" fill="url(#paint9_radial_115_127)"/>
<path fill-rule="evenodd" clip-rule="evenodd" d="M21.3029 35.3427C22.1269 34.9018 23.85 34.9183 24.7206 35.2993C25.8933 35.8123 27.546 36.3158 30.1613 36.3158C32.8218 36.3158 34.4495 35.9118 35.5577 35.4053C36.4187 35.0112 38.2554 34.9478 39.1581 35.4152C39.8961 35.7976 40.7034 36.1017 42.2964 36.2307C42.5226 36.2513 42.7179 36.3032 42.8405 36.3753C42.9631 36.4476 43.0036 36.5343 42.9532 36.6171C42.9028 36.7 42.7655 36.7724 42.5706 36.819C42.3757 36.8656 42.1385 36.8827 41.9095 36.8667C39.711 36.6894 38.567 36.2428 37.6917 35.7897C37.6344 35.7598 37.5305 35.7376 37.374 35.7389C37.2948 35.7392 37.2167 35.7458 37.1452 35.7582C37.0736 35.7706 37.0104 35.7885 36.9596 35.8106C35.5553 36.4527 33.4333 36.9675 30.1613 36.9675C26.7901 36.9675 24.68 36.3019 23.3425 35.7155C23.3045 35.6989 23.2568 35.6858 23.2028 35.6769C23.1488 35.668 23.09 35.6637 23.0309 35.6642C22.9826 35.6637 22.9347 35.6676 22.8916 35.6754C22.8484 35.6833 22.8114 35.695 22.7837 35.7094C21.8928 36.1859 20.75 36.6781 18.413 36.8667C18.2969 36.8772 18.1761 36.8792 18.0578 36.8726C17.9396 36.8659 17.8261 36.8507 17.7243 36.8277C17.6225 36.8048 17.5344 36.7748 17.4651 36.7392C17.3958 36.7037 17.3467 36.6636 17.3209 36.621C17.295 36.5785 17.2928 36.5345 17.3145 36.4917C17.3361 36.4489 17.3811 36.408 17.4469 36.3717C17.5126 36.3353 17.5977 36.304 17.6973 36.2798C17.7967 36.2556 17.9086 36.2389 18.0261 36.2307C19.7122 36.0942 20.5195 35.7615 21.3029 35.3427ZM21.3029 39.6869C22.1269 39.246 23.85 39.2625 24.7206 39.6435C25.8933 40.1565 27.546 40.66 30.1613 40.66C32.8218 40.66 34.4495 40.256 35.5577 39.7495C36.4187 39.3555 38.2554 39.292 39.1581 39.7595C39.8961 40.1418 40.7034 40.4458 42.2964 40.5749C42.5226 40.5955 42.7179 40.6474 42.8405 40.7196C42.9631 40.7917 43.0036 40.8785 42.9532 40.9613C42.9028 41.0441 42.7655 41.1166 42.5706 41.1632C42.3757 41.2098 42.1385 41.2269 41.9095 41.2109C39.711 41.0336 38.567 40.587 37.6917 40.1339C37.6344 40.1039 37.5305 40.0818 37.374 40.0831C37.2948 40.0834 37.2167 40.09 37.1452 40.1023C37.0736 40.1147 37.0104 40.1326 36.9596 40.1548C35.5553 40.7973 33.4333 41.3116 30.1613 41.3116C26.7901 41.3116 24.68 40.6461 23.3425 40.0597C23.3045 40.0431 23.2568 40.0299 23.2028 40.0211C23.1488 40.0122 23.09 40.0079 23.0309 40.0084C22.9826 40.0079 22.9347 40.0117 22.8916 40.0196C22.8484 40.0275 22.8114 40.0392 22.7837 40.0536C21.8928 40.5301 20.75 41.0223 18.413 41.2109C18.181 41.2295 17.9382 41.2139 17.7378 41.1674C17.5375 41.1209 17.3961 41.0474 17.3448 40.963C17.2935 40.8786 17.3365 40.7902 17.4642 40.7174C17.592 40.6445 17.7941 40.5931 18.0261 40.5744C19.7122 40.4389 20.5195 40.1057 21.3029 39.6869Z" fill="url(#paint10_radial_115_127)"/>
<path opacity="0.5" d="M21.3029 37.5148C22.1269 37.0739 23.85 37.0904 24.7206 37.4714C25.8933 37.9845 27.546 38.4879 30.1613 38.4879C32.8218 38.4879 34.4495 38.0839 35.5577 37.5774C36.4187 37.1834 38.2553 37.12 39.1581 37.5874C39.8961 37.9697 40.7034 38.2738 42.2964 38.4028C42.5226 38.4234 42.7179 38.4753 42.8405 38.5475C42.9631 38.6197 43.0036 38.7064 42.9532 38.7892C42.9028 38.8721 42.7655 38.9445 42.5706 38.9911C42.3757 39.0377 42.1385 39.0548 41.9095 39.0388C39.711 38.8616 38.567 38.415 37.6917 37.9619C37.6344 37.9319 37.5304 37.9097 37.374 37.911C37.2948 37.9113 37.2167 37.9179 37.1452 37.9303C37.0736 37.9427 37.0104 37.9606 36.9596 37.9827C35.5553 38.6252 33.4333 39.1396 30.1613 39.1396C26.7901 39.1396 24.68 38.4736 23.3425 37.8876C23.3045 37.8711 23.2568 37.8579 23.2028 37.849C23.1488 37.8401 23.09 37.8358 23.0309 37.8363C22.9826 37.8358 22.9347 37.8397 22.8916 37.8476C22.8484 37.8555 22.8113 37.8671 22.7837 37.8815C21.8928 38.358 20.75 38.8502 18.413 39.0388C18.181 39.0574 17.9382 39.0418 17.7378 38.9953C17.5375 38.9489 17.3961 38.8753 17.3448 38.791C17.2935 38.7066 17.3365 38.6182 17.4642 38.5453C17.592 38.4724 17.7941 38.421 18.0261 38.4023C19.7122 38.2668 20.5195 37.9336 21.3029 37.5148Z" fill="black"/>
</g>
<g filter="url(#filter10_d_115_127)">
<path d="M87.3448 10.5264H59.2697C56.2547 10.5264 53.8106 12.8828 53.8106 15.7895V42.8125C53.8106 45.7193 56.2547 48.0757 59.2697 48.0757H87.3448C90.3598 48.0757 92.8039 45.7193 92.8039 42.8125V15.7895C92.8039 12.8828 90.3598 10.5264 87.3448 10.5264Z" fill="url(#paint11_linear_115_127)"/>
</g>
<g filter="url(#filter11_i_115_127)">
<path fill-rule="evenodd" clip-rule="evenodd" d="M83.8118 22.8355C84.6448 22.4659 84.7175 22.1317 84.7175 21.9602C84.7175 21.7887 84.6448 21.4545 83.8118 21.0849C82.9777 20.7153 81.686 20.4817 80.1116 20.4817C78.5373 20.4817 77.2467 20.7153 76.4115 21.0849C75.5784 21.4545 75.5053 21.7887 75.5053 21.9602C75.5053 22.1317 75.5784 22.4659 76.4115 22.8355C77.2456 23.2051 78.5373 23.4387 80.1116 23.4387C81.686 23.4387 82.9766 23.2051 83.8118 22.8355ZM80.1116 24.9172C81.8394 24.9172 83.4002 24.6609 84.5171 24.1494C84.4904 24.2914 84.4614 24.4331 84.4303 24.5742L83.2222 30.0052C83.2108 30.0369 83.1976 30.0678 83.1824 30.0979C83.1032 30.2568 82.9957 30.4012 82.8652 30.5247C82.5518 30.8263 81.8105 31.3241 80.1116 31.3241C78.4122 31.3241 77.6714 30.8263 77.3581 30.5256C77.2271 30.402 77.1201 30.2572 77.0409 30.0979C77.0262 30.0674 77.0131 30.0362 77.0022 30.0042L76.9792 29.9057C77.0911 29.8889 77.2036 29.8682 77.3172 29.8436C78.8708 29.5173 80.6788 28.6085 82.6616 26.9546C82.7375 26.891 82.8002 26.8136 82.845 26.7269C82.8903 26.64 82.9171 26.5455 82.9247 26.4487C82.9318 26.3519 82.9192 26.2546 82.887 26.1624C82.8554 26.0703 82.8051 25.9851 82.7391 25.9118C82.673 25.8383 82.5928 25.7782 82.5027 25.7347C82.4126 25.6912 82.3144 25.6653 82.2139 25.6583C82.1135 25.6514 82.0119 25.6635 81.9164 25.6942C81.8209 25.7248 81.7324 25.7733 81.656 25.8369C79.8005 27.3863 78.2168 28.1413 76.9885 28.3996C76.8761 28.4232 76.7647 28.443 76.6572 28.4587L75.793 24.5752C75.7624 24.4332 75.7329 24.2923 75.7062 24.1494C76.822 24.6619 78.3839 24.9172 80.1116 24.9172ZM75.0653 28.3631L74.3518 25.1558C74.0652 25.5756 73.908 25.9896 73.8507 26.3652C73.7409 27.0749 73.9833 27.6692 74.4566 28.0408C74.6182 28.1689 74.8207 28.2813 75.0664 28.3631H75.0653ZM74.0335 23.2554C73.9915 22.8249 73.9702 22.3926 73.9702 21.9602C73.9702 19.9889 76.7194 19.0032 80.1116 19.0032C83.5039 19.0032 86.2531 19.9889 86.2531 21.9602C86.2531 22.9429 86.1455 23.9236 85.9315 24.8847L84.7175 30.3384C84.7175 30.3384 84.2059 32.8025 80.1116 32.8025C76.0174 32.8025 75.5053 30.3384 75.5053 30.3384L75.4196 29.95C74.6662 29.8603 74.009 29.5991 73.4849 29.1861C72.5487 28.4489 72.1512 27.3163 72.3303 26.1493C72.4837 25.1439 73.0553 24.1296 74.0313 23.2554H74.0335Z" fill="url(#paint12_radial_115_127)"/>
</g>
<g filter="url(#filter12_i_115_127)">
<path d="M57.4811 16.5236C56.6278 16.7639 56.4029 17.8333 56.9778 18.9126L64.9764 32.1859L63.7328 32.5349C63.2677 32.6645 63.0406 33.0525 63.2251 33.4004C63.325 33.5895 63.5281 33.7278 63.7661 33.7934C64.8825 36.8696 61.6594 40.7079 60.5573 41.8999C61.4001 42.0906 62.255 42.2226 63.1116 42.2974C64.8295 40.7476 65.8018 38.7416 65.6882 36.592C65.7494 36.8198 65.804 37.05 65.8416 37.2845C66.1381 39.1191 65.6326 40.876 64.5358 42.3679C65.8853 42.3857 67.2244 42.2629 68.5149 42.0045C68.9418 40.9937 69.1198 39.9089 69.0019 38.7928C69.0756 39.0183 69.1405 39.2476 69.1902 39.481C69.3633 40.2825 69.3807 41.0733 69.2612 41.838C70.3787 41.5644 71.4503 41.1877 72.4515 40.7105C72.5628 38.8043 71.8269 36.8561 70.2045 35.2044C70.4283 35.3693 70.6462 35.54 70.8552 35.7204C72.3565 37.0215 73.2523 38.5504 73.57 40.1173C74.4069 39.6258 75.1788 39.0574 75.8672 38.414C75.6772 36.2801 71.1921 33.5604 68.7835 32.3716C68.89 32.21 68.908 32.0158 68.8103 31.8327C68.6263 31.4849 68.0995 31.309 67.6355 31.4387L66.3684 31.7942L60.0649 18.0426C59.4906 16.9639 58.3327 16.2833 57.4811 16.5236Z" fill="url(#paint13_radial_115_127)"/>
</g>
</g>
</g>
<defs>
<filter id="filter0_i_115_127" x="10.9181" y="10.5264" width="81.8858" height="80.9475" filterUnits="userSpaceOnUse" color-interpolation-filters="sRGB">
<feFlood flood-opacity="0" result="BackgroundImageFix"/>
<feBlend mode="normal" in="SourceGraphic" in2="BackgroundImageFix" result="shape"/>
<feColorMatrix in="SourceAlpha" type="matrix" values="0 0 0 0 0 0 0 0 0 0 0 0 0 0 0 0 0 0 127 0" result="hardAlpha"/>
<feOffset dy="2"/>
<feGaussianBlur stdDeviation="1"/>
<feComposite in2="hardAlpha" operator="arithmetic" k2="-1" k3="1"/>
<feColorMatrix type="matrix" values="0 0 0 0 0 0 0 0 0 0 0 0 0 0 0 0 0 0 0.1 0"/>
<feBlend mode="normal" in2="shape" result="effect1_innerShadow_115_127"/>
</filter>
<filter id="filter1_d_115_127" x="33.8106" y="31.8306" width="78.9933" height="77.5493" filterUnits="userSpaceOnUse" color-interpolation-filters="sRGB">
<feFlood flood-opacity="0" result="BackgroundImageFix"/>
<feColorMatrix in="SourceAlpha" type="matrix" values="0 0 0 0 0 0 0 0 0 0 0 0 0 0 0 0 0 0 127 0" result="hardAlpha"/>
<feOffset/>
<feGaussianBlur stdDeviation="10"/>
<feComposite in2="hardAlpha" operator="out"/>
<feColorMatrix type="matrix" values="0 0 0 0 0 0 0 0 0 0 0 0 0 0 0 0 0 0 0.1 0"/>
<feBlend mode="normal" in2="BackgroundImageFix" result="effect1_dropShadow_115_127"/>
<feBlend mode="normal" in="SourceGraphic" in2="effect1_dropShadow_115_127" result="shape"/>
</filter>
<filter id="filter2_i_115_127" x="74.3796" y="56.6558" width="13.7541" height="15.71" filterUnits="userSpaceOnUse" color-interpolation-filters="sRGB">
<feFlood flood-opacity="0" result="BackgroundImageFix"/>
<feBlend mode="normal" in="SourceGraphic" in2="BackgroundImageFix" result="shape"/>
<feColorMatrix in="SourceAlpha" type="matrix" values="0 0 0 0 0 0 0 0 0 0 0 0 0 0 0 0 0 0 127 0" result="hardAlpha"/>
<feOffset dy="4"/>
<feGaussianBlur stdDeviation="1"/>
<feComposite in2="hardAlpha" operator="arithmetic" k2="-1" k3="1"/>
<feColorMatrix type="matrix" values="0 0 0 0 1 0 0 0 0 1 0 0 0 0 1 0 0 0 1 0"/>
<feBlend mode="normal" in2="shape" result="effect1_innerShadow_115_127"/>
</filter>
<filter id="filter3_i_115_127" x="66.8122" y="70.3799" width="19.1002" height="20.2607" filterUnits="userSpaceOnUse" color-interpolation-filters="sRGB">
<feFlood flood-opacity="0" result="BackgroundImageFix"/>
<feBlend mode="normal" in="SourceGraphic" in2="BackgroundImageFix" result="shape"/>
<feColorMatrix in="SourceAlpha" type="matrix" values="0 0 0 0 0 0 0 0 0 0 0 0 0 0 0 0 0 0 127 0" result="hardAlpha"/>
<feOffset dy="4"/>
<feGaussianBlur stdDeviation="1"/>
<feComposite in2="hardAlpha" operator="arithmetic" k2="-1" k3="1"/>
<feColorMatrix type="matrix" values="0 0 0 0 1 0 0 0 0 1 0 0 0 0 1 0 0 0 1 0"/>
<feBlend mode="normal" in2="shape" result="effect1_innerShadow_115_127"/>
</filter>
<filter id="filter4_i_115_127" x="57.8107" y="56.9441" width="11.6361" height="14.249" filterUnits="userSpaceOnUse" color-interpolation-filters="sRGB">
<feFlood flood-opacity="0" result="BackgroundImageFix"/>
<feBlend mode="normal" in="SourceGraphic" in2="BackgroundImageFix" result="shape"/>
<feColorMatrix in="SourceAlpha" type="matrix" values="0 0 0 0 0 0 0 0 0 0 0 0 0 0 0 0 0 0 127 0" result="hardAlpha"/>
<feOffset dy="4"/>
<feGaussianBlur stdDeviation="1"/>
<feComposite in2="hardAlpha" operator="arithmetic" k2="-1" k3="1"/>
<feColorMatrix type="matrix" values="0 0 0 0 1 0 0 0 0 1 0 0 0 0 1 0 0 0 1 0"/>
<feBlend mode="normal" in2="shape" result="effect1_innerShadow_115_127"/>
</filter>
<filter id="filter5_d_115_127" x="-9.08191" y="31.9246" width="78.9933" height="77.5493" filterUnits="userSpaceOnUse" color-interpolation-filters="sRGB">
<feFlood flood-opacity="0" result="BackgroundImageFix"/>
<feColorMatrix in="SourceAlpha" type="matrix" values="0 0 0 0 0 0 0 0 0 0 0 0 0 0 0 0 0 0 127 0" result="hardAlpha"/>
<feOffset/>
<feGaussianBlur stdDeviation="10"/>
<feComposite in2="hardAlpha" operator="out"/>
<feColorMatrix type="matrix" values="0 0 0 0 0 0 0 0 0 0 0 0 0 0 0 0 0 0 0.1 0"/>
<feBlend mode="normal" in2="BackgroundImageFix" result="effect1_dropShadow_115_127"/>
<feBlend mode="normal" in="SourceGraphic" in2="effect1_dropShadow_115_127" result="shape"/>
</filter>
<filter id="filter6_i_115_127" x="27.7047" y="66.1182" width="20.2864" height="21.7136" filterUnits="userSpaceOnUse" color-interpolation-filters="sRGB">
<feFlood flood-opacity="0" result="BackgroundImageFix"/>
<feBlend mode="normal" in="SourceGraphic" in2="BackgroundImageFix" result="shape"/>
<feColorMatrix in="SourceAlpha" type="matrix" values="0 0 0 0 0 0 0 0 0 0 0 0 0 0 0 0 0 0 127 0" result="hardAlpha"/>
<feOffset dy="4"/>
<feGaussianBlur stdDeviation="1"/>
<feComposite in2="hardAlpha" operator="arithmetic" k2="-1" k3="1"/>
<feColorMatrix type="matrix" values="0 0 0 0 1 0 0 0 0 1 0 0 0 0 1 0 0 0 1 0"/>
<feBlend mode="normal" in2="shape" result="effect1_innerShadow_115_127"/>
</filter>
<filter id="filter7_i_115_127" x="13.1138" y="55.7957" width="16.1648" height="18.0833" filterUnits="userSpaceOnUse" color-interpolation-filters="sRGB">
<feFlood flood-opacity="0" result="BackgroundImageFix"/>
<feBlend mode="normal" in="SourceGraphic" in2="BackgroundImageFix" result="shape"/>
<feColorMatrix in="SourceAlpha" type="matrix" values="0 0 0 0 0 0 0 0 0 0 0 0 0 0 0 0 0 0 127 0" result="hardAlpha"/>
<feOffset dy="4"/>
<feGaussianBlur stdDeviation="1"/>
<feComposite in2="hardAlpha" operator="arithmetic" k2="-1" k3="1"/>
<feColorMatrix type="matrix" values="0 0 0 0 1 0 0 0 0 1 0 0 0 0 1 0 0 0 1 0"/>
<feBlend mode="normal" in2="shape" result="effect1_innerShadow_115_127"/>
</filter>
<filter id="filter8_d_115_127" x="-9.08191" y="-9.47363" width="78.9933" height="77.5493" filterUnits="userSpaceOnUse" color-interpolation-filters="sRGB">
<feFlood flood-opacity="0" result="BackgroundImageFix"/>
<feColorMatrix in="SourceAlpha" type="matrix" values="0 0 0 0 0 0 0 0 0 0 0 0 0 0 0 0 0 0 127 0" result="hardAlpha"/>
<feOffset/>
<feGaussianBlur stdDeviation="10"/>
<feComposite in2="hardAlpha" operator="out"/>
<feColorMatrix type="matrix" values="0 0 0 0 0 0 0 0 0 0 0 0 0 0 0 0 0 0 0.1 0"/>
<feBlend mode="normal" in2="BackgroundImageFix" result="effect1_dropShadow_115_127"/>
<feBlend mode="normal" in="SourceGraphic" in2="effect1_dropShadow_115_127" result="shape"/>
</filter>
<filter id="filter9_i_115_127" x="17.2997" y="17.147" width="25.6747" height="26.1646" filterUnits="userSpaceOnUse" color-interpolation-filters="sRGB">
<feFlood flood-opacity="0" result="BackgroundImageFix"/>
<feBlend mode="normal" in="SourceGraphic" in2="BackgroundImageFix" result="shape"/>
<feColorMatrix in="SourceAlpha" type="matrix" values="0 0 0 0 0 0 0 0 0 0 0 0 0 0 0 0 0 0 127 0" result="hardAlpha"/>
<feOffset dy="4"/>
<feGaussianBlur stdDeviation="1"/>
<feComposite in2="hardAlpha" operator="arithmetic" k2="-1" k3="1"/>
<feColorMatrix type="matrix" values="0 0 0 0 1 0 0 0 0 1 0 0 0 0 1 0 0 0 1 0"/>
<feBlend mode="normal" in2="shape" result="effect1_innerShadow_115_127"/>
</filter>
<filter id="filter10_d_115_127" x="33.8106" y="-9.47363" width="78.9933" height="77.5493" filterUnits="userSpaceOnUse" color-interpolation-filters="sRGB">
<feFlood flood-opacity="0" result="BackgroundImageFix"/>
<feColorMatrix in="SourceAlpha" type="matrix" values="0 0 0 0 0 0 0 0 0 0 0 0 0 0 0 0 0 0 127 0" result="hardAlpha"/>
<feOffset/>
<feGaussianBlur stdDeviation="10"/>
<feComposite in2="hardAlpha" operator="out"/>
<feColorMatrix type="matrix" values="0 0 0 0 0 0 0 0 0 0 0 0 0 0 0 0 0 0 0.1 0"/>
<feBlend mode="normal" in2="BackgroundImageFix" result="effect1_dropShadow_115_127"/>
<feBlend mode="normal" in="SourceGraphic" in2="effect1_dropShadow_115_127" result="shape"/>
</filter>
<filter id="filter11_i_115_127" x="72.2885" y="19.0032" width="13.9647" height="15.7993" filterUnits="userSpaceOnUse" color-interpolation-filters="sRGB">
<feFlood flood-opacity="0" result="BackgroundImageFix"/>
<feBlend mode="normal" in="SourceGraphic" in2="BackgroundImageFix" result="shape"/>
<feColorMatrix in="SourceAlpha" type="matrix" values="0 0 0 0 0 0 0 0 0 0 0 0 0 0 0 0 0 0 127 0" result="hardAlpha"/>
<feOffset dy="4"/>
<feGaussianBlur stdDeviation="1"/>
<feComposite in2="hardAlpha" operator="arithmetic" k2="-1" k3="1"/>
<feColorMatrix type="matrix" values="0 0 0 0 1 0 0 0 0 1 0 0 0 0 1 0 0 0 1 0"/>
<feBlend mode="normal" in2="shape" result="effect1_innerShadow_115_127"/>
</filter>
<filter id="filter12_i_115_127" x="56.6594" y="16.4753" width="19.2078" height="27.8943" filterUnits="userSpaceOnUse" color-interpolation-filters="sRGB">
<feFlood flood-opacity="0" result="BackgroundImageFix"/>
<feBlend mode="normal" in="SourceGraphic" in2="BackgroundImageFix" result="shape"/>
<feColorMatrix in="SourceAlpha" type="matrix" values="0 0 0 0 0 0 0 0 0 0 0 0 0 0 0 0 0 0 127 0" result="hardAlpha"/>
<feOffset dy="4"/>
<feGaussianBlur stdDeviation="1"/>
<feComposite in2="hardAlpha" operator="arithmetic" k2="-1" k3="1"/>
<feColorMatrix type="matrix" values="0 0 0 0 1 0 0 0 0 1 0 0 0 0 1 0 0 0 1 0"/>
<feBlend mode="normal" in2="shape" result="effect1_innerShadow_115_127"/>
</filter>
<linearGradient id="paint0_linear_115_127" x1="53.9082" y1="55.4726" x2="91.4777" y2="90.7909" gradientUnits="userSpaceOnUse">
<stop stop-color="#FB383C"/>
<stop offset="1" stop-color="#FBC438"/>
</linearGradient>
<radialGradient id="paint1_radial_115_127" cx="0" cy="0" r="1" gradientUnits="userSpaceOnUse" gradientTransform="translate(81.257 63.5105) rotate(89.3139) scale(6.94483 6.9672)">
<stop stop-color="white"/>
<stop offset="1" stop-color="#F0F0F0" stop-opacity="0.58"/>
</radialGradient>
<radialGradient id="paint2_radial_115_127" cx="0" cy="0" r="1" gradientUnits="userSpaceOnUse" gradientTransform="translate(76.3875 79.4858) rotate(133.673) scale(5.08739 0.168742)">
<stop stop-color="white"/>
<stop offset="1" stop-color="#C0C0C0" stop-opacity="0.84"/>
</radialGradient>
<radialGradient id="paint3_radial_115_127" cx="0" cy="0" r="1" gradientUnits="userSpaceOnUse" gradientTransform="translate(64.9507 62.9688) rotate(127.76) scale(5.30916 5.32652)">
<stop stop-color="white"/>
<stop offset="1" stop-color="#C1C1C1" stop-opacity="0.79"/>
</radialGradient>
<linearGradient id="paint4_linear_115_127" x1="49.8139" y1="52.0184" x2="12.4782" y2="93.4428" gradientUnits="userSpaceOnUse">
<stop stop-color="#81FE00"/>
<stop offset="1" stop-color="#0093FE"/>
</linearGradient>
<radialGradient id="paint5_radial_115_127" cx="0" cy="0" r="1" gradientUnits="userSpaceOnUse" gradientTransform="translate(37.8479 75.9748) rotate(90) scale(9.85669 10.1432)">
<stop stop-color="white"/>
<stop offset="1" stop-color="#CCCCCC"/>
</radialGradient>
<radialGradient id="paint6_radial_115_127" cx="0" cy="0" r="1" gradientUnits="userSpaceOnUse" gradientTransform="translate(21.2415 63.7864) rotate(-130.292) scale(10.8987 11.0487)">
<stop stop-color="#A0A09E"/>
<stop offset="1" stop-color="white"/>
</radialGradient>
<linearGradient id="paint7_linear_115_127" x1="13.17" y1="10.5264" x2="46.3161" y2="49.2243" gradientUnits="userSpaceOnUse">
<stop/>
<stop offset="1" stop-color="#00FEC1"/>
</linearGradient>
<radialGradient id="paint8_radial_115_127" cx="0" cy="0" r="1" gradientUnits="userSpaceOnUse" gradientTransform="translate(30.4209 28.0724) rotate(90) scale(8.08042 9.77455)">
<stop stop-color="white"/>
<stop offset="1" stop-color="white" stop-opacity="0.72"/>
</radialGradient>
<radialGradient id="paint9_radial_115_127" cx="0" cy="0" r="1" gradientUnits="userSpaceOnUse" gradientTransform="translate(30.4217 22.2383) rotate(90) scale(5.09136 12.2131)">
<stop stop-color="white"/>
<stop offset="1" stop-color="white" stop-opacity="0.72"/>
</radialGradient>
<radialGradient id="paint10_radial_115_127" cx="0" cy="0" r="1" gradientUnits="userSpaceOnUse" gradientTransform="translate(30.137 38.1621) rotate(90) scale(3.14947 12.8373)">
<stop stop-color="white"/>
<stop offset="1" stop-color="white" stop-opacity="0.72"/>
</radialGradient>
<linearGradient id="paint11_linear_115_127" x1="88.5049" y1="10.5264" x2="55.3588" y2="49.2243" gradientUnits="userSpaceOnUse">
<stop stop-color="#81FE00"/>
<stop offset="1" stop-color="#00F2F3"/>
</linearGradient>
<radialGradient id="paint12_radial_115_127" cx="0" cy="0" r="1" gradientUnits="userSpaceOnUse" gradientTransform="translate(79.271 25.9029) rotate(90) scale(6.89968 6.9823)">
<stop stop-color="white"/>
<stop offset="1" stop-color="#C1BFBF"/>
</radialGradient>
<radialGradient id="paint13_radial_115_127" cx="0" cy="0" r="1" gradientUnits="userSpaceOnUse" gradientTransform="translate(66.2199 29.5718) rotate(75.5026) scale(11.6653 4.95687)">
<stop stop-color="white"/>
<stop offset="1" stop-color="#C6C6C6"/>
</radialGradient>
<clipPath id="clip0_115_127">
<rect width="220" height="100" fill="white"/>
</clipPath>
</defs>
</svg>
